<svg width="141" height="32" fill="none" xmlns="http://www.w3.org/2000/svg"><path d="M32.287 3.856a3.855 3.855 0 01-3.856 3.856 3.855 3.855 0 01-3.856-3.856A3.855 3.855 0 0128.431 0a3.855 3.855 0 013.856 3.856zM0 .49h23.286l-2.12 6.52h-6.029v24.447H7.499V7.009H0V.49zm61.826 0h23.281l-2.114 6.519h-6.035v24.447h-7.632V7.009h-7.5V.489zM32.25 10.593h-7.638v20.863h7.638V10.593zm17.651 6.205l-.106-.027 9.507-9.736H50.04l-7.004 7.004V.49h-7.638v30.967h7.638v-7.76l2.034-2.083 7.015 9.843h8.346l-10.53-14.658zm79.696 0l-.107-.027 9.508-9.736h-9.263l-7.003 7.004V.49h-7.638v30.967h7.638v-7.76l2.034-2.083 7.015 9.843h8.351l-10.535-14.658zM97.656 5.922c-7.201 0-13.039 5.838-13.039 13.039 0 7.2 5.838 13.038 13.039 13.038s13.038-5.837 13.038-13.038c0-7.201-5.837-13.039-13.038-13.039zm0 19.452a6.412 6.412 0 110-12.826 6.413 6.413 0 110 12.826z" fill="#fff"/><path d="M84.617 18.96c0-6.769 5.161-12.335 11.76-12.974-.42-.042-.846-.064-1.278-.064-7.201 0-13.038 5.838-13.038 13.039 0 7.2 5.837 13.038 13.038 13.038.431 0 .858-.02 1.278-.063-6.599-.645-11.76-6.206-11.76-12.975z" fill="#00F0E9"/><path d="M99.722 5.922c-.346 0-.692.016-1.033.043 6.716.527 12.005 6.141 12.005 12.996s-5.289 12.469-12.005 12.996c.34.026.682.042 1.033.042 7.201 0 13.039-5.837 13.039-13.038 0-7.201-5.838-13.039-13.039-13.039z" fill="#FF0B53"/></svg>