<svg width="41" height="40" fill="none" xmlns="http://www.w3.org/2000/svg"><path d="M16.69 37.986l-.017-2.42c-.008-1.137.156-1.96.492-2.47.337-.51.872-.768 1.606-.774.508-.003.93.136 1.263.42.33.278.546.689.647 1.231h.059c.214-1.303.893-1.958 2.037-1.966.766-.005 1.365.25 1.799.767.433.513.653 1.234.66 2.164l.02 2.988-8.566.06zm3.66-1.022l-.01-1.64c-.006-.704-.119-1.209-.34-1.516-.224-.307-.598-.459-1.122-.455-.48.003-.825.178-1.033.523-.213.345-.316.893-.311 1.643l.01 1.464 2.807-.02zm.844-.006l3.205-.022-.012-1.787c-.005-.692-.141-1.21-.41-1.556-.271-.35-.692-.523-1.263-.519-.531.004-.92.186-1.168.547-.247.358-.369.901-.363 1.632l.011 1.705zm-.842-12.442c.418-.003.737.116.957.357.217.236.364.571.441 1.004h.053c.07-.547.227-.947.472-1.199.244-.255.583-.385 1.017-.388.597-.004 1.06.214 1.387.653.327.435.494 1.074.5 1.918l.02 2.83-6.422.045-.02-2.818c-.011-1.594.52-2.395 1.595-2.402zm2.882.747c-.348.003-.599.137-.753.404-.158.263-.235.699-.231 1.308l.012 1.764 2.115-.015-.012-1.787c-.008-1.12-.385-1.679-1.131-1.674zm-2.782.201c-.312.003-.532.125-.66.368-.13.24-.194.603-.191 1.091l.013 1.835 1.81-.013-.011-1.647c-.004-.601-.082-1.024-.232-1.27-.15-.244-.393-.366-.729-.364zm4.793-5.918c.007.949-.277 1.7-.852 2.256-.574.55-1.375.83-2.402.837-1.035.007-1.86-.241-2.472-.745-.613-.507-.922-1.19-.928-2.05-.006-.805.255-1.443.783-1.916.524-.472 1.22-.711 2.087-.717l.615-.005.031 4.424c.754-.025 1.325-.218 1.713-.58.388-.366.58-.877.575-1.534a5.171 5.171 0 00-.448-2.047l.867-.006c.151.342.259.668.324.976.068.304.104.673.107 1.107zm-5.84.304c.004.516.175.927.513 1.233.338.302.804.479 1.398.53l-.023-3.358c-.614.004-1.082.144-1.404.42-.326.276-.487.667-.484 1.175zm5.787-7.918a2.83 2.83 0 01-.22 1.15c-.155.345-.39.636-.71.872l.001.07c.375-.049.73-.075 1.066-.077l2.642-.018.007.972-9.304.065-.006-.791.878-.14v-.048c-.353-.247-.61-.537-.768-.867a2.654 2.654 0 01-.242-1.141c-.006-.852.28-1.51.86-1.975.578-.469 1.393-.707 2.443-.714 1.055-.008 1.877.223 2.466.691.585.465.881 1.115.887 1.951zm-5.83.181c.006.657.19 1.13.556 1.42.365.29.944.437 1.737.44l.217-.002c.902-.006 1.548-.161 1.936-.465.385-.303.575-.787.57-1.45-.004-.556-.231-.988-.683-1.297-.451-.313-1.071-.467-1.86-.462-.801.006-1.413.168-1.837.488-.427.315-.64.758-.635 1.329zm2.38-6.675l-3.119 2.254-.008-1.107 2.45-1.71-2.473-1.67-.008-1.096 3.15 2.21 3.271-2.372.008 1.101-2.59 1.817 2.615 1.798.008 1.102-3.304-2.327zM33.354.621a.5.5 0 00-.707 0l-3.182 3.182a.5.5 0 10.707.707L33 1.682l2.828 2.828a.5.5 0 00.708-.707L33.354.621zm.146 38.406V.975h-1v38.052h1z" fill="#fff"/></svg>